<mxfile host="app.diagrams.net" agent="Mozilla/5.0 (X11; Linux x86_64; rv:136.0) Gecko/20100101 Firefox/136.0" version="26.1.0">
  <diagram name="Page-1" id="zCTSw_WzxD3gHAVFJ5RD">
    <mxGraphModel dx="1440" dy="1932" grid="1" gridSize="10" guides="1" tooltips="1" connect="1" arrows="1" fold="1" page="1" pageScale="1" pageWidth="850" pageHeight="1100" math="0" shadow="0">
      <root>
        <mxCell id="0" />
        <mxCell id="1" parent="0" />
        <mxCell id="T8pc5dhUPjK2P9x3Lb49-72" value="" style="rounded=1;whiteSpace=wrap;html=1;strokeWidth=2;" vertex="1" parent="1">
          <mxGeometry x="450" y="80" width="450" height="400" as="geometry" />
        </mxCell>
        <mxCell id="T8pc5dhUPjK2P9x3Lb49-19" value="" style="rounded=1;whiteSpace=wrap;html=1;fillColor=default;strokeWidth=2;" vertex="1" parent="1">
          <mxGeometry x="140" y="80" width="260" height="400" as="geometry" />
        </mxCell>
        <mxCell id="T8pc5dhUPjK2P9x3Lb49-82" value="" style="edgeStyle=orthogonalEdgeStyle;rounded=0;orthogonalLoop=1;jettySize=auto;html=1;" edge="1" parent="1" source="T8pc5dhUPjK2P9x3Lb49-1" target="T8pc5dhUPjK2P9x3Lb49-6">
          <mxGeometry relative="1" as="geometry" />
        </mxCell>
        <mxCell id="T8pc5dhUPjK2P9x3Lb49-1" value="" style="ellipse;whiteSpace=wrap;html=1;aspect=fixed;" vertex="1" parent="1">
          <mxGeometry x="240" y="150" width="80" height="80" as="geometry" />
        </mxCell>
        <mxCell id="T8pc5dhUPjK2P9x3Lb49-2" value="" style="endArrow=classic;html=1;rounded=0;exitX=0.5;exitY=1;exitDx=0;exitDy=0;startSize=6;endSize=8;strokeWidth=4;" edge="1" parent="1" source="T8pc5dhUPjK2P9x3Lb49-1">
          <mxGeometry width="50" height="50" relative="1" as="geometry">
            <mxPoint x="430" y="420" as="sourcePoint" />
            <mxPoint x="300" y="170" as="targetPoint" />
          </mxGeometry>
        </mxCell>
        <mxCell id="T8pc5dhUPjK2P9x3Lb49-6" value="" style="shape=image;html=1;verticalAlign=top;verticalLabelPosition=bottom;labelBackgroundColor=#ffffff;imageAspect=0;aspect=fixed;image=https://cdn2.iconfinder.com/data/icons/boxicons-regular-vol-1/24/bx-brain-128.png" vertex="1" parent="1">
          <mxGeometry x="231" y="260" width="98" height="98" as="geometry" />
        </mxCell>
        <mxCell id="T8pc5dhUPjK2P9x3Lb49-7" value="&lt;font style=&quot;font-size: 28px;&quot;&gt;Target Interleave Ratio&lt;/font&gt;" style="rounded=1;whiteSpace=wrap;html=1;" vertex="1" parent="1">
          <mxGeometry x="180" y="380" width="200" height="70" as="geometry" />
        </mxCell>
        <mxCell id="T8pc5dhUPjK2P9x3Lb49-8" value="&lt;font style=&quot;font-size: 26px;&quot;&gt;BW Utilization&lt;/font&gt;" style="text;html=1;align=center;verticalAlign=middle;whiteSpace=wrap;rounded=0;" vertex="1" parent="1">
          <mxGeometry x="225" y="100" width="110" height="30" as="geometry" />
        </mxCell>
        <mxCell id="T8pc5dhUPjK2P9x3Lb49-9" value="" style="endArrow=classic;html=1;rounded=0;exitX=0.5;exitY=1;exitDx=0;exitDy=0;entryX=0.5;entryY=0;entryDx=0;entryDy=0;strokeWidth=3;" edge="1" parent="1" source="T8pc5dhUPjK2P9x3Lb49-1" target="T8pc5dhUPjK2P9x3Lb49-6">
          <mxGeometry width="50" height="50" relative="1" as="geometry">
            <mxPoint x="340" y="400" as="sourcePoint" />
            <mxPoint x="390" y="350" as="targetPoint" />
            <Array as="points">
              <mxPoint x="280" y="250" />
            </Array>
          </mxGeometry>
        </mxCell>
        <mxCell id="T8pc5dhUPjK2P9x3Lb49-10" value="" style="endArrow=none;html=1;rounded=0;entryX=0;entryY=0.5;entryDx=0;entryDy=0;" edge="1" parent="1" target="T8pc5dhUPjK2P9x3Lb49-1">
          <mxGeometry width="50" height="50" relative="1" as="geometry">
            <mxPoint x="250" y="190" as="sourcePoint" />
            <mxPoint x="390" y="350" as="targetPoint" />
          </mxGeometry>
        </mxCell>
        <mxCell id="T8pc5dhUPjK2P9x3Lb49-12" value="" style="endArrow=none;html=1;rounded=0;entryX=0;entryY=0;entryDx=0;entryDy=0;" edge="1" parent="1" target="T8pc5dhUPjK2P9x3Lb49-1">
          <mxGeometry width="50" height="50" relative="1" as="geometry">
            <mxPoint x="260" y="170" as="sourcePoint" />
            <mxPoint x="250" y="170" as="targetPoint" />
          </mxGeometry>
        </mxCell>
        <mxCell id="T8pc5dhUPjK2P9x3Lb49-13" value="" style="endArrow=none;html=1;rounded=0;entryX=0.5;entryY=0;entryDx=0;entryDy=0;exitX=0.5;exitY=0.125;exitDx=0;exitDy=0;exitPerimeter=0;" edge="1" parent="1" source="T8pc5dhUPjK2P9x3Lb49-1" target="T8pc5dhUPjK2P9x3Lb49-1">
          <mxGeometry width="50" height="50" relative="1" as="geometry">
            <mxPoint x="290" y="160" as="sourcePoint" />
            <mxPoint x="280" y="160" as="targetPoint" />
          </mxGeometry>
        </mxCell>
        <mxCell id="T8pc5dhUPjK2P9x3Lb49-14" value="" style="endArrow=none;html=1;rounded=0;entryX=0;entryY=0.5;entryDx=0;entryDy=0;" edge="1" parent="1">
          <mxGeometry width="50" height="50" relative="1" as="geometry">
            <mxPoint x="320" y="189.92" as="sourcePoint" />
            <mxPoint x="310" y="189.92" as="targetPoint" />
          </mxGeometry>
        </mxCell>
        <mxCell id="T8pc5dhUPjK2P9x3Lb49-15" value="" style="endArrow=none;html=1;rounded=0;exitX=1;exitY=0;exitDx=0;exitDy=0;entryX=0.75;entryY=0.25;entryDx=0;entryDy=0;entryPerimeter=0;" edge="1" parent="1" source="T8pc5dhUPjK2P9x3Lb49-1" target="T8pc5dhUPjK2P9x3Lb49-1">
          <mxGeometry width="50" height="50" relative="1" as="geometry">
            <mxPoint x="310" y="168" as="sourcePoint" />
            <mxPoint x="330" y="180" as="targetPoint" />
          </mxGeometry>
        </mxCell>
        <mxCell id="T8pc5dhUPjK2P9x3Lb49-17" value="" style="endArrow=classic;html=1;rounded=0;exitX=0.5;exitY=1;exitDx=0;exitDy=0;entryX=0.5;entryY=0;entryDx=0;entryDy=0;strokeWidth=3;" edge="1" parent="1">
          <mxGeometry width="50" height="50" relative="1" as="geometry">
            <mxPoint x="279.40999999999997" y="350" as="sourcePoint" />
            <mxPoint x="279.40999999999997" y="380" as="targetPoint" />
            <Array as="points">
              <mxPoint x="279.40999999999997" y="370" />
            </Array>
          </mxGeometry>
        </mxCell>
        <mxCell id="T8pc5dhUPjK2P9x3Lb49-18" value="" style="endArrow=classic;html=1;rounded=0;exitX=0;exitY=0.5;exitDx=0;exitDy=0;entryX=0;entryY=0.5;entryDx=0;entryDy=0;strokeWidth=3;" edge="1" parent="1" source="T8pc5dhUPjK2P9x3Lb49-7" target="T8pc5dhUPjK2P9x3Lb49-6">
          <mxGeometry width="50" height="50" relative="1" as="geometry">
            <mxPoint x="350" y="200" as="sourcePoint" />
            <mxPoint x="400" y="150" as="targetPoint" />
            <Array as="points">
              <mxPoint x="160" y="415" />
              <mxPoint x="160" y="360" />
              <mxPoint x="160" y="310" />
            </Array>
          </mxGeometry>
        </mxCell>
        <mxCell id="T8pc5dhUPjK2P9x3Lb49-20" value="&lt;font style=&quot;font-size: 28px;&quot;&gt;Calibrator&lt;/font&gt;" style="text;html=1;align=center;verticalAlign=middle;whiteSpace=wrap;rounded=0;" vertex="1" parent="1">
          <mxGeometry x="171" y="35" width="60" height="30" as="geometry" />
        </mxCell>
        <mxCell id="T8pc5dhUPjK2P9x3Lb49-21" value="" style="ellipse;whiteSpace=wrap;html=1;aspect=fixed;" vertex="1" parent="1">
          <mxGeometry x="500" y="160" width="80" height="80" as="geometry" />
        </mxCell>
        <mxCell id="T8pc5dhUPjK2P9x3Lb49-22" value="" style="endArrow=classic;html=1;rounded=0;exitX=0.5;exitY=1;exitDx=0;exitDy=0;startSize=6;endSize=8;strokeWidth=4;entryX=0.875;entryY=0.5;entryDx=0;entryDy=0;entryPerimeter=0;" edge="1" parent="1" source="T8pc5dhUPjK2P9x3Lb49-21" target="T8pc5dhUPjK2P9x3Lb49-21">
          <mxGeometry width="50" height="50" relative="1" as="geometry">
            <mxPoint x="690" y="430" as="sourcePoint" />
            <mxPoint x="550" y="200" as="targetPoint" />
          </mxGeometry>
        </mxCell>
        <mxCell id="T8pc5dhUPjK2P9x3Lb49-23" value="" style="endArrow=none;html=1;rounded=0;entryX=0;entryY=0.5;entryDx=0;entryDy=0;" edge="1" parent="1" target="T8pc5dhUPjK2P9x3Lb49-21">
          <mxGeometry width="50" height="50" relative="1" as="geometry">
            <mxPoint x="510" y="200" as="sourcePoint" />
            <mxPoint x="650" y="360" as="targetPoint" />
          </mxGeometry>
        </mxCell>
        <mxCell id="T8pc5dhUPjK2P9x3Lb49-24" value="" style="endArrow=none;html=1;rounded=0;entryX=0;entryY=0;entryDx=0;entryDy=0;" edge="1" parent="1" target="T8pc5dhUPjK2P9x3Lb49-21">
          <mxGeometry width="50" height="50" relative="1" as="geometry">
            <mxPoint x="520" y="180" as="sourcePoint" />
            <mxPoint x="510" y="180" as="targetPoint" />
          </mxGeometry>
        </mxCell>
        <mxCell id="T8pc5dhUPjK2P9x3Lb49-25" value="" style="endArrow=none;html=1;rounded=0;entryX=0.5;entryY=0;entryDx=0;entryDy=0;exitX=0.5;exitY=0.125;exitDx=0;exitDy=0;exitPerimeter=0;" edge="1" parent="1" source="T8pc5dhUPjK2P9x3Lb49-21" target="T8pc5dhUPjK2P9x3Lb49-21">
          <mxGeometry width="50" height="50" relative="1" as="geometry">
            <mxPoint x="550" y="170" as="sourcePoint" />
            <mxPoint x="540" y="170" as="targetPoint" />
          </mxGeometry>
        </mxCell>
        <mxCell id="T8pc5dhUPjK2P9x3Lb49-26" value="" style="endArrow=none;html=1;rounded=0;entryX=0;entryY=0.5;entryDx=0;entryDy=0;" edge="1" parent="1">
          <mxGeometry width="50" height="50" relative="1" as="geometry">
            <mxPoint x="580" y="199.91999999999996" as="sourcePoint" />
            <mxPoint x="570" y="199.91999999999996" as="targetPoint" />
          </mxGeometry>
        </mxCell>
        <mxCell id="T8pc5dhUPjK2P9x3Lb49-27" value="" style="endArrow=none;html=1;rounded=0;exitX=1;exitY=0;exitDx=0;exitDy=0;entryX=0.75;entryY=0.25;entryDx=0;entryDy=0;entryPerimeter=0;" edge="1" parent="1" source="T8pc5dhUPjK2P9x3Lb49-21" target="T8pc5dhUPjK2P9x3Lb49-21">
          <mxGeometry width="50" height="50" relative="1" as="geometry">
            <mxPoint x="570" y="178" as="sourcePoint" />
            <mxPoint x="590" y="190" as="targetPoint" />
          </mxGeometry>
        </mxCell>
        <mxCell id="T8pc5dhUPjK2P9x3Lb49-28" value="&lt;font style=&quot;font-size: 26px;&quot;&gt;Local Capacity&lt;/font&gt;" style="text;html=1;align=center;verticalAlign=middle;whiteSpace=wrap;rounded=0;" vertex="1" parent="1">
          <mxGeometry x="510" y="107.5" width="60" height="30" as="geometry" />
        </mxCell>
        <mxCell id="T8pc5dhUPjK2P9x3Lb49-29" value="&lt;font style=&quot;font-size: 28px;&quot;&gt;Page Hotness Tracker&lt;/font&gt;" style="rounded=1;whiteSpace=wrap;html=1;" vertex="1" parent="1">
          <mxGeometry x="460" y="273" width="181" height="70" as="geometry" />
        </mxCell>
        <mxCell id="T8pc5dhUPjK2P9x3Lb49-30" value="&lt;font style=&quot;font-size: 28px;&quot;&gt;Demotion Policy&lt;/font&gt;" style="rounded=1;whiteSpace=wrap;html=1;" vertex="1" parent="1">
          <mxGeometry x="690" y="170" width="171" height="70" as="geometry" />
        </mxCell>
        <mxCell id="T8pc5dhUPjK2P9x3Lb49-31" value="&lt;font style=&quot;font-size: 28px;&quot;&gt;Interleave Policy&lt;/font&gt;" style="rounded=1;whiteSpace=wrap;html=1;" vertex="1" parent="1">
          <mxGeometry x="690" y="340" width="171" height="70" as="geometry" />
        </mxCell>
        <mxCell id="T8pc5dhUPjK2P9x3Lb49-38" value="&lt;div&gt;&lt;font style=&quot;font-size: 26px;&quot;&gt;Kernel&lt;/font&gt;&lt;/div&gt;" style="text;html=1;align=center;verticalAlign=middle;whiteSpace=wrap;rounded=0;" vertex="1" parent="1">
          <mxGeometry x="450" width="60" height="30" as="geometry" />
        </mxCell>
        <mxCell id="T8pc5dhUPjK2P9x3Lb49-40" value="" style="endArrow=classic;html=1;rounded=0;exitX=1;exitY=0.5;exitDx=0;exitDy=0;entryX=0;entryY=0.5;entryDx=0;entryDy=0;strokeWidth=3;" edge="1" parent="1" source="T8pc5dhUPjK2P9x3Lb49-21" target="T8pc5dhUPjK2P9x3Lb49-30">
          <mxGeometry width="50" height="50" relative="1" as="geometry">
            <mxPoint x="570" y="440" as="sourcePoint" />
            <mxPoint x="620" y="390" as="targetPoint" />
          </mxGeometry>
        </mxCell>
        <mxCell id="T8pc5dhUPjK2P9x3Lb49-41" value="" style="endArrow=classic;html=1;rounded=0;exitX=1;exitY=0.5;exitDx=0;exitDy=0;entryX=0;entryY=0.5;entryDx=0;entryDy=0;strokeWidth=3;" edge="1" parent="1" source="T8pc5dhUPjK2P9x3Lb49-29" target="T8pc5dhUPjK2P9x3Lb49-30">
          <mxGeometry width="50" height="50" relative="1" as="geometry">
            <mxPoint x="570" y="440" as="sourcePoint" />
            <mxPoint x="620" y="390" as="targetPoint" />
          </mxGeometry>
        </mxCell>
        <mxCell id="T8pc5dhUPjK2P9x3Lb49-42" value="" style="endArrow=classic;html=1;rounded=0;exitX=1;exitY=0.5;exitDx=0;exitDy=0;entryX=0;entryY=0.5;entryDx=0;entryDy=0;strokeWidth=3;" edge="1" parent="1" source="T8pc5dhUPjK2P9x3Lb49-29" target="T8pc5dhUPjK2P9x3Lb49-31">
          <mxGeometry width="50" height="50" relative="1" as="geometry">
            <mxPoint x="570" y="440" as="sourcePoint" />
            <mxPoint x="620" y="390" as="targetPoint" />
          </mxGeometry>
        </mxCell>
        <mxCell id="T8pc5dhUPjK2P9x3Lb49-43" value="" style="endArrow=classic;html=1;rounded=0;exitX=1;exitY=0.5;exitDx=0;exitDy=0;entryX=0;entryY=0.5;entryDx=0;entryDy=0;strokeWidth=3;" edge="1" parent="1" source="T8pc5dhUPjK2P9x3Lb49-7" target="T8pc5dhUPjK2P9x3Lb49-31">
          <mxGeometry width="50" height="50" relative="1" as="geometry">
            <mxPoint x="620" y="440" as="sourcePoint" />
            <mxPoint x="670" y="390" as="targetPoint" />
          </mxGeometry>
        </mxCell>
        <mxCell id="T8pc5dhUPjK2P9x3Lb49-44" value="&lt;font style=&quot;font-size: 26px;&quot;&gt;Demote Page&lt;br&gt;&lt;font&gt;D&lt;/font&gt;&lt;/font&gt;" style="text;html=1;align=center;verticalAlign=middle;whiteSpace=wrap;rounded=0;" vertex="1" parent="1">
          <mxGeometry x="692.88" y="255" width="174.25" height="30" as="geometry" />
        </mxCell>
        <mxCell id="T8pc5dhUPjK2P9x3Lb49-45" value="&lt;font style=&quot;font-size: 26px;&quot;&gt;Migrate Page&lt;br&gt;&lt;font&gt;E&lt;/font&gt;&lt;/font&gt;" style="text;html=1;align=center;verticalAlign=middle;whiteSpace=wrap;rounded=0;" vertex="1" parent="1">
          <mxGeometry x="692.88" y="430" width="165.25" height="30" as="geometry" />
        </mxCell>
        <mxCell id="T8pc5dhUPjK2P9x3Lb49-46" value="" style="rounded=1;whiteSpace=wrap;html=1;" vertex="1" parent="1">
          <mxGeometry x="940" y="55" width="120" height="415" as="geometry" />
        </mxCell>
        <mxCell id="T8pc5dhUPjK2P9x3Lb49-47" value="" style="rounded=1;whiteSpace=wrap;html=1;" vertex="1" parent="1">
          <mxGeometry x="1170" y="55" width="120" height="415" as="geometry" />
        </mxCell>
        <mxCell id="T8pc5dhUPjK2P9x3Lb49-48" value="&lt;font style=&quot;font-size: 26px;&quot;&gt;Local Mem&lt;/font&gt;" style="text;html=1;align=center;verticalAlign=middle;whiteSpace=wrap;rounded=0;" vertex="1" parent="1">
          <mxGeometry x="930" y="25" width="130" height="30" as="geometry" />
        </mxCell>
        <mxCell id="T8pc5dhUPjK2P9x3Lb49-49" value="&lt;font style=&quot;font-size: 26px;&quot;&gt;CXL Mem&lt;/font&gt;" style="text;html=1;align=center;verticalAlign=middle;whiteSpace=wrap;rounded=0;" vertex="1" parent="1">
          <mxGeometry x="1170" y="25" width="120" height="30" as="geometry" />
        </mxCell>
        <mxCell id="T8pc5dhUPjK2P9x3Lb49-50" value="&lt;font style=&quot;font-size: 26px;&quot;&gt;A&lt;/font&gt;" style="rounded=0;whiteSpace=wrap;html=1;" vertex="1" parent="1">
          <mxGeometry x="960" y="85" width="80" height="75" as="geometry" />
        </mxCell>
        <mxCell id="T8pc5dhUPjK2P9x3Lb49-51" value="&lt;font style=&quot;font-size: 26px;&quot;&gt;B&lt;/font&gt;" style="rounded=0;whiteSpace=wrap;html=1;" vertex="1" parent="1">
          <mxGeometry x="960" y="180" width="80" height="75" as="geometry" />
        </mxCell>
        <mxCell id="T8pc5dhUPjK2P9x3Lb49-52" value="&lt;font style=&quot;font-size: 26px;&quot;&gt;C&lt;/font&gt;" style="rounded=0;whiteSpace=wrap;html=1;" vertex="1" parent="1">
          <mxGeometry x="960" y="275" width="80" height="75" as="geometry" />
        </mxCell>
        <mxCell id="T8pc5dhUPjK2P9x3Lb49-54" value="&lt;font style=&quot;font-size: 26px;&quot;&gt;E&lt;/font&gt;" style="rounded=0;whiteSpace=wrap;html=1;" vertex="1" parent="1">
          <mxGeometry x="1190" y="83" width="80" height="75" as="geometry" />
        </mxCell>
        <mxCell id="T8pc5dhUPjK2P9x3Lb49-55" value="&lt;font style=&quot;font-size: 26px;&quot;&gt;F&lt;/font&gt;" style="rounded=0;whiteSpace=wrap;html=1;" vertex="1" parent="1">
          <mxGeometry x="1190" y="178" width="80" height="75" as="geometry" />
        </mxCell>
        <mxCell id="T8pc5dhUPjK2P9x3Lb49-56" value="&lt;font style=&quot;font-size: 26px;&quot;&gt;G&lt;/font&gt;" style="rounded=0;whiteSpace=wrap;html=1;" vertex="1" parent="1">
          <mxGeometry x="1190" y="273" width="80" height="75" as="geometry" />
        </mxCell>
        <mxCell id="T8pc5dhUPjK2P9x3Lb49-57" value="" style="shape=image;verticalLabelPosition=bottom;labelBackgroundColor=default;verticalAlign=top;aspect=fixed;imageAspect=0;image=https://thumbs.dreamstime.com/b/black-isolated-outline-icon-flame-fire-white-background-line-bonfire-132930160.jpg;clipPath=inset(19.67% 27.67% 19.33% 27.33%);" vertex="1" parent="1">
          <mxGeometry x="950" y="65" width="36.89" height="50" as="geometry" />
        </mxCell>
        <mxCell id="T8pc5dhUPjK2P9x3Lb49-58" value="" style="shape=image;verticalLabelPosition=bottom;labelBackgroundColor=default;verticalAlign=top;aspect=fixed;imageAspect=0;image=https://thumbs.dreamstime.com/b/black-isolated-outline-icon-flame-fire-white-background-line-bonfire-132930160.jpg;clipPath=inset(19.67% 27.67% 19.33% 27.33%);" vertex="1" parent="1">
          <mxGeometry x="950" y="165" width="36.89" height="50" as="geometry" />
        </mxCell>
        <mxCell id="T8pc5dhUPjK2P9x3Lb49-59" value="" style="shape=image;verticalLabelPosition=bottom;labelBackgroundColor=default;verticalAlign=top;aspect=fixed;imageAspect=0;image=https://thumbs.dreamstime.com/b/black-isolated-outline-icon-flame-fire-white-background-line-bonfire-132930160.jpg;clipPath=inset(19.67% 27.67% 19.33% 27.33%);" vertex="1" parent="1">
          <mxGeometry x="1180" y="65" width="36.89" height="50" as="geometry" />
        </mxCell>
        <mxCell id="T8pc5dhUPjK2P9x3Lb49-60" value="" style="shape=image;verticalLabelPosition=bottom;labelBackgroundColor=default;verticalAlign=top;aspect=fixed;imageAspect=0;image=https://thumbs.dreamstime.com/b/black-isolated-outline-icon-flame-fire-white-background-line-bonfire-132930160.jpg;clipPath=inset(19.67% 27.67% 19.33% 27.33%);" vertex="1" parent="1">
          <mxGeometry x="1180" y="158" width="36.89" height="50" as="geometry" />
        </mxCell>
        <mxCell id="T8pc5dhUPjK2P9x3Lb49-61" value="" style="shape=image;verticalLabelPosition=bottom;labelBackgroundColor=default;verticalAlign=top;aspect=fixed;imageAspect=0;image=https://thumbs.dreamstime.com/b/black-isolated-outline-icon-flame-fire-white-background-line-bonfire-132930160.jpg;clipPath=inset(19.67% 27.67% 19.33% 27.33%);" vertex="1" parent="1">
          <mxGeometry x="1180" y="259" width="36.89" height="50" as="geometry" />
        </mxCell>
        <mxCell id="T8pc5dhUPjK2P9x3Lb49-67" value="" style="shape=image;verticalLabelPosition=bottom;labelBackgroundColor=default;verticalAlign=top;aspect=fixed;imageAspect=0;image=https://i.pinimg.com/564x/ac/8a/a3/ac8aa3dfcd7c374a0f8a327ffd095109.jpg;" vertex="1" parent="1">
          <mxGeometry x="943.9300000000001" y="259" width="49.03" height="54" as="geometry" />
        </mxCell>
        <mxCell id="T8pc5dhUPjK2P9x3Lb49-73" value="&lt;font style=&quot;font-size: 28px;&quot;&gt;Migrator&lt;/font&gt;" style="text;html=1;align=center;verticalAlign=middle;whiteSpace=wrap;rounded=0;" vertex="1" parent="1">
          <mxGeometry x="490" y="40" width="60" height="30" as="geometry" />
        </mxCell>
        <mxCell id="T8pc5dhUPjK2P9x3Lb49-74" value="" style="endArrow=classic;html=1;rounded=0;exitX=0;exitY=0.5;exitDx=0;exitDy=0;entryX=1.018;entryY=0.161;entryDx=0;entryDy=0;entryPerimeter=0;strokeWidth=3;" edge="1" parent="1" source="T8pc5dhUPjK2P9x3Lb49-54" target="T8pc5dhUPjK2P9x3Lb49-46">
          <mxGeometry width="50" height="50" relative="1" as="geometry">
            <mxPoint x="790" y="235" as="sourcePoint" />
            <mxPoint x="840" y="185" as="targetPoint" />
          </mxGeometry>
        </mxCell>
        <mxCell id="T8pc5dhUPjK2P9x3Lb49-75" value="&lt;font style=&quot;font-size: 26px;&quot;&gt;D&lt;/font&gt;" style="rounded=0;whiteSpace=wrap;html=1;" vertex="1" parent="1">
          <mxGeometry x="960" y="371" width="80" height="75" as="geometry" />
        </mxCell>
        <mxCell id="T8pc5dhUPjK2P9x3Lb49-76" value="" style="shape=image;verticalLabelPosition=bottom;labelBackgroundColor=default;verticalAlign=top;aspect=fixed;imageAspect=0;image=https://i.pinimg.com/564x/ac/8a/a3/ac8aa3dfcd7c374a0f8a327ffd095109.jpg;" vertex="1" parent="1">
          <mxGeometry x="943.9300000000001" y="355" width="49.03" height="54" as="geometry" />
        </mxCell>
        <mxCell id="T8pc5dhUPjK2P9x3Lb49-77" value="" style="endArrow=classic;html=1;rounded=0;entryX=-0.01;entryY=0.855;entryDx=0;entryDy=0;entryPerimeter=0;exitX=1;exitY=0.5;exitDx=0;exitDy=0;strokeWidth=3;" edge="1" parent="1" source="T8pc5dhUPjK2P9x3Lb49-75" target="T8pc5dhUPjK2P9x3Lb49-47">
          <mxGeometry width="50" height="50" relative="1" as="geometry">
            <mxPoint x="790" y="235" as="sourcePoint" />
            <mxPoint x="840" y="185" as="targetPoint" />
          </mxGeometry>
        </mxCell>
        <mxCell id="T8pc5dhUPjK2P9x3Lb49-36" value="" style="endArrow=none;html=1;rounded=0;strokeWidth=2;" edge="1" parent="1">
          <mxGeometry width="50" height="50" relative="1" as="geometry">
            <mxPoint x="430" y="490" as="sourcePoint" />
            <mxPoint x="430" as="targetPoint" />
          </mxGeometry>
        </mxCell>
        <mxCell id="T8pc5dhUPjK2P9x3Lb49-37" value="&lt;font style=&quot;font-size: 26px;&quot;&gt;User&lt;/font&gt;" style="text;html=1;align=center;verticalAlign=middle;whiteSpace=wrap;rounded=0;movable=1;resizable=1;rotatable=1;deletable=1;editable=1;locked=0;connectable=1;" vertex="1" parent="1">
          <mxGeometry x="360" width="60" height="30" as="geometry" />
        </mxCell>
      </root>
    </mxGraphModel>
  </diagram>
</mxfile>
